<?xml version="1.0" standalone="no"?>
<!DOCTYPE svg PUBLIC "-//W3C//DTD SVG 20010904//EN"
 "http://www.w3.org/TR/2001/REC-SVG-20010904/DTD/svg10.dtd">
<svg version="1.0" xmlns="http://www.w3.org/2000/svg"
 width="118.000000pt" height="118.000000pt" viewBox="0 0 118.000000 118.000000"
 preserveAspectRatio="xMidYMid meet">
<metadata>
Created by potrace 1.11, written by Peter Selinger 2001-2013
</metadata>
<g transform="translate(0.000000,118.000000) scale(0.100000,-0.100000)"
fill="#000000" stroke="none">
<path d="M0 590 l0 -590 590 0 590 0 0 590 0 590 -590 0 -590 0 0 -590z m799
268 c32 -123 15 -175 -64 -202 -84 -29 -140 17 -174 143 -12 46 -20 85 -17 88
3 3 24 -6 48 -19 37 -21 49 -23 80 -15 31 7 43 18 65 58 15 26 30 45 34 41 3
-4 16 -46 28 -94z m-492 -148 c38 -22 46 -38 63 -108 l12 -53 29 46 c28 45 73
80 116 91 17 5 30 -2 52 -25 45 -48 114 -65 174 -42 24 9 25 8 56 -108 17 -65
31 -126 31 -135 0 -17 -45 -40 -65 -32 -6 2 -22 43 -34 90 -13 47 -24 86 -26
86 -1 0 -29 -32 -60 -71 -57 -71 -57 -71 -27 -64 26 5 33 2 47 -19 10 -14 15
-32 12 -39 -3 -8 -59 -28 -127 -46 -105 -28 -126 -31 -151 -20 -17 6 -34 19
-38 28 -5 9 -28 88 -52 176 -23 88 -47 166 -52 173 -5 6 -21 12 -36 12 -45 0
-67 40 -39 68 18 18 79 14 115 -8z"/>
<path d="M731 796 c-12 -14 -5 -26 16 -26 15 0 18 26 4 34 -5 3 -14 0 -20 -8z"/>
<path d="M632 764 c4 -21 22 -23 26 -1 2 10 -3 17 -13 17 -10 0 -15 -6 -13
-16z"/>
</g>
</svg>
